# xmcd
#
# Track frame offsets:
# 150
# 15003
# 26827
# 38036
# 53950
# 67410
# 80251
# 93358
# 104402
# 118490
#
# Disc length: 1777 seconds
#
#
# Revision: 0
# Processed by: cddbd v1.5.2PL0 Copyright (c) Steve Scherf et al.
# Submitted via: FreeRIP 2.941 
#
DISCID=8106ef0a
DTITLE=George Jones - American Legend
DYEAR=2005
DGENRE=Country
TTITLE0=He Stopped Loving Her Today
TTITLE1=White Ligntnin
TTITLE2=She's My Rock
TTITLE3=Ol' Red
TTITLE4=We're Gonna Hold On
TTITLE5=She Thinks I  Still Care
TTITLE6=Tennessee Whiskey
TTITLE7=Wy, Baby, Why
TTITLE8=The Grand Tour
TTITLE9=Who's Gonna Fill Their Shoes
EXTD=
EXTT0=
EXTT1=
EXTT2=
EXTT3=
EXTT4=
EXTT5=
EXTT6=
EXTT7=
EXTT8=
EXTT9=
PLAYORDER=
